<?xml version="1.0" standalone="no"?>
<!DOCTYPE svg PUBLIC "-//W3C//DTD SVG 20010904//EN"
 "http://www.w3.org/TR/2001/REC-SVG-20010904/DTD/svg10.dtd">
<svg version="1.0" xmlns="http://www.w3.org/2000/svg"
 width="773.000000pt" height="784.000000pt" viewBox="0 0 773.000000 784.000000"
 preserveAspectRatio="xMidYMid meet">

<g transform="translate(0.000000,784.000000) scale(0.100000,-0.100000)"
fill="#000000" stroke="none">
<path d="M421 7649 c-104 -20 -198 -99 -249 -207 l-27 -57 -3 -620 c-3 -695
-5 -673 68 -739 87 -79 227 -50 279 56 21 44 21 54 21 621 l0 576 508 3 c565
3 542 1 598 73 32 42 42 114 25 168 -15 46 -88 112 -137 126 -47 13 -1017 13
-1083 0z"/>
<path d="M6170 7648 c-45 -12 -96 -51 -121 -92 -16 -25 -19 -45 -17 -101 4
-83 28 -124 93 -155 40 -19 62 -20 538 -20 l497 0 0 -577 c0 -543 2 -581 19
-619 64 -140 259 -135 332 8 19 37 20 56 17 671 -3 624 -3 633 -25 679 -45 98
-145 179 -252 204 -69 17 -1024 18 -1081 2z"/>
<path d="M3788 7480 c-46 -14 -85 -48 -107 -93 -17 -35 -21 -62 -21 -144 0
-55 -3 -114 -6 -132 l-6 -31 -852 -2 c-840 -3 -852 -3 -891 -24 -53 -28 -88
-93 -82 -153 5 -49 29 -86 77 -118 l33 -23 864 0 864 0 -3 -107 -3 -107 -115
-13 c-605 -66 -1203 -346 -1634 -763 -191 -185 -312 -333 -441 -540 -202 -322
-350 -732 -386 -1065 -16 -151 -19 -166 -35 -172 -8 -3 -21 0 -29 7 -13 11
-15 124 -15 875 l0 862 -23 43 c-32 62 -95 96 -159 86 -53 -8 -99 -41 -125
-90 -16 -28 -17 -108 -18 -901 l0 -870 -165 -5 c-132 -5 -173 -9 -203 -24 -76
-37 -120 -132 -97 -208 17 -60 45 -95 93 -121 37 -19 60 -22 203 -25 l162 -4
6 -421 c4 -232 6 -579 4 -772 -3 -396 -1 -403 74 -453 75 -49 170 -25 220 56
l23 37 3 775 c1 426 6 778 11 783 4 4 19 4 32 -2 23 -8 25 -16 36 -117 13
-120 82 -403 137 -559 131 -375 344 -712 633 -1002 350 -351 874 -623 1398
-727 118 -23 188 -33 358 -51 l58 -7 -3 -71 -3 -72 -867 -5 c-861 -5 -867 -5
-895 -26 -89 -67 -87 -208 5 -270 26 -18 71 -19 892 -24 l865 -5 5 -115 c6
-129 20 -168 79 -207 90 -61 206 -31 259 65 19 34 25 64 30 150 l7 107 855 5
c787 5 858 6 887 22 106 59 108 228 3 280 -33 17 -96 18 -892 18 l-858 0 0 75
0 74 33 5 c17 3 79 10 137 16 488 53 1043 280 1423 582 166 132 346 316 470
481 258 342 461 845 510 1263 12 108 13 109 40 112 l27 3 2 -103 c1 -57 2
-407 2 -778 1 -620 2 -678 18 -707 52 -94 167 -115 249 -46 61 52 59 21 59
862 l0 769 163 4 c141 3 167 6 202 25 106 56 136 171 69 266 -52 74 -76 82
-266 85 l-168 4 -2 883 -3 883 -31 39 c-75 93 -213 77 -272 -32 -15 -27 -16
-98 -13 -722 1 -381 0 -776 -4 -878 -7 -169 -9 -185 -26 -185 -10 0 -20 3 -23
8 -2 4 -12 64 -20 132 -96 751 -503 1440 -1109 1878 -413 299 -932 492 -1432
534 l-30 3 0 105 0 105 865 5 865 5 31 22 c87 62 82 200 -8 265 l-33 23 -862
3 -863 2 0 105 c0 135 -14 197 -53 242 -50 57 -116 75 -189 53z m207 -1300
c578 -47 1147 -314 1570 -735 308 -306 521 -684 631 -1115 39 -156 54 -259 61
-420 19 -480 -149 -1012 -449 -1413 -90 -122 -284 -327 -397 -421 -357 -296
-862 -498 -1366 -547 -402 -39 -901 57 -1300 251 -521 253 -905 645 -1119
1140 -177 411 -235 807 -181 1230 10 74 73 324 106 417 87 247 251 525 444
753 425 502 1085 832 1730 863 33 2 78 4 101 5 23 1 99 -3 169 -8z"/>
<path d="M2385 4585 c-153 -28 -276 -93 -381 -200 -121 -124 -184 -272 -184
-432 0 -95 18 -143 70 -186 73 -62 164 -55 237 17 44 45 46 48 61 169 16 130
85 213 206 251 117 37 240 4 325 -89 53 -58 71 -100 71 -167 0 -78 18 -128 59
-169 119 -119 304 -30 318 154 6 84 -18 191 -64 285 -57 115 -188 245 -303
300 -144 69 -286 92 -415 67z"/>
<path d="M5105 4589 c-158 -24 -275 -80 -383 -183 -125 -120 -196 -259 -209
-411 -8 -99 8 -156 61 -211 65 -67 134 -77 216 -32 57 31 83 79 92 169 9 97
36 155 97 212 65 61 146 90 231 84 76 -5 133 -31 195 -89 57 -52 81 -106 90
-197 8 -90 33 -143 83 -175 51 -34 98 -40 152 -21 92 33 135 102 134 215 -3
245 -150 464 -389 580 -114 55 -252 77 -370 59z"/>
<path d="M3242 3169 c-54 -16 -108 -79 -121 -141 -23 -112 32 -230 174 -373
73 -74 106 -99 175 -133 118 -58 227 -82 371 -82 232 0 421 78 569 237 139
149 189 307 130 411 -45 80 -148 114 -226 74 -50 -26 -72 -50 -122 -138 -82
-143 -197 -210 -352 -208 -148 3 -251 57 -327 174 -79 123 -98 145 -143 168
-47 23 -75 26 -128 11z"/>
<path d="M970 6862 c-57 -30 -80 -87 -80 -202 0 -113 20 -168 72 -200 29 -18
46 -21 145 -18 94 3 116 6 139 24 60 44 69 67 72 182 3 96 1 112 -20 151 -34
66 -70 81 -193 81 -78 0 -108 -4 -135 -18z"/>
<path d="M6442 6863 c-63 -31 -77 -64 -80 -193 -3 -132 9 -168 68 -208 32 -22
43 -23 145 -20 96 3 114 6 143 26 56 40 67 73 66 199 -1 127 -17 168 -78 197
-47 22 -218 22 -264 -1z"/>
<path d="M267 1896 c-48 -18 -73 -40 -101 -91 -21 -40 -21 -45 -21 -685 l0
-645 33 -67 c36 -74 95 -132 170 -170 l47 -23 540 -3 c373 -2 552 0 578 8 43
13 102 61 123 101 17 33 18 106 3 146 -11 31 -53 78 -84 96 -14 9 -168 13
-530 17 l-510 5 -5 595 c-5 654 -2 621 -67 683 -48 45 -109 57 -176 33z"/>
<path d="M7270 1888 c-26 -14 -57 -41 -75 -66 l-30 -44 -3 -599 -3 -599 -490
0 c-527 0 -531 0 -587 -53 -55 -51 -72 -149 -39 -213 23 -44 81 -92 119 -99
18 -3 274 -5 568 -3 l535 3 56 26 c79 37 133 90 171 167 l33 67 0 651 0 652
-30 44 c-34 48 -102 88 -150 88 -17 0 -51 -10 -75 -22z"/>
<path d="M1064 1421 c-137 -10 -173 -56 -174 -221 0 -80 4 -103 23 -140 32
-65 68 -80 193 -80 88 0 105 3 134 23 68 46 75 65 75 202 0 109 -2 127 -21
152 -23 32 -98 74 -129 71 -11 -1 -56 -4 -101 -7z"/>
<path d="M6429 1397 c-59 -39 -70 -75 -67 -207 3 -129 13 -155 71 -190 26 -16
50 -20 132 -20 85 0 106 4 139 23 66 37 81 74 81 202 0 183 -32 215 -211 215
-99 0 -115 -2 -145 -23z"/>
</g>
</svg>
